<svg viewBox="104.82758620689651 179.8499999999999 278.4482758620691 294.2999999999999" xmlns="http://www.w3.org/2000/svg" xmlns:xlink="http://www.w3.org/1999/xlink" overflow="visible" width="278.4482758620691px" height="294.2999999999999px"><defs><polygon id="masterstickerscat-path-1" points="0.000179785228 0.774369501 47.588858 0.774369501 47.588858 120.404196 0.000179785228 120.404196"/><polygon id="masterstickerscat-path-3" points="0.125086339 0.758749683 14.1771624 0.758749683 14.1771624 6.50517889 0.125086339 6.50517889"/></defs><g id="Master/Stickers/Cat" stroke="none" stroke-width="1" fill="none" fill-rule="evenodd"><g id="Pet-Copy-2" transform="translate(248.500000, 201.000000) scale(-1, 1) translate(-248.500000, -201.000000) translate(0.000000, -69.000000)"><g id="Group-35" transform="translate(120.292994, 251.788856)"><path d="M56.3792685,213.548622 C56.1386825,213.597713 57.6328481,228.07478 57.4144213,241.734721 C57.1880806,255.788974 59.4752303,278.841114 75.485278,282.214135 C89.0546443,285.072493 93.249071,271.900293 86.275243,266.834428 C79.8712239,262.18346 74.2601889,247.777654 78.6429691,230.587918 C78.6429691,230.587918 73.6793003,207.656129 56.3792685,213.548622" id="Fill-1" fill="#E0B40C"/><path d="M213.32253,246.956094 L253.193326,247.614862 C253.193326,247.614862 269.44396,247.614862 270.300256,255.843132 C271.154969,264.069818 264.97096,268.613103 257.338686,268.678029 C249.706412,268.74454 188.847654,267.55844 188.847654,267.55844 C188.847654,267.55844 195.623632,249.589584 195.88796,249.589584 C196.150705,249.589584 213.32253,246.956094 213.32253,246.956094" id="Fill-3" fill="#E0B40C"/><g id="Group-7" transform="translate(0.000000, 0.809208)"><mask id="masterstickerscat-mask-2" fill="#fff"><use xlink:href="#masterstickerscat-path-1"/></mask><g id="Clip-6"/><path d="M47.588858,114.627273 C47.588858,114.627273 36.4047752,89.3502053 34.9565108,64.7319062 C33.5098293,40.113607 32.9827561,-2.80609971 10.2188898,1.01190616 C-11.1964287,4.60346041 3.0060586,77.4971261 34.6399503,119.365337 C34.6399503,119.365337 45.352358,123.710674 47.588858,114.627273" id="Fill-5" fill="#EFD638" mask="url(#masterstickerscat-mask-2)"/></g><path d="M41.2726844,198.640029 C41.2726844,198.640029 88.3800538,246.823548 114.171821,261.569824 C139.963589,276.314516 156.016372,288.425718 200.493124,287.372639 C244.968293,286.31956 269.137688,288.101085 267.602369,271.047537 C267.406102,268.868534 266.812551,265.782141 261.548149,264.729062 C261.548149,264.729062 252.075076,262.622903 204.177888,261.569824 C204.177888,261.569824 222.073054,250.774575 223.915436,228.393871 C225.757818,206.013167 226.810382,192.584428 226.810382,192.584428 C226.810382,192.584428 230.495146,166.517155 224.178181,165.464076 C217.862799,164.410997 207.598325,183.368006 207.598325,183.368006 L172.858974,184.685543 C172.858974,184.685543 162.863576,160.461554 154.441484,160.724428 C146.019391,160.987302 149.436662,180.471642 150.226481,188.897859 C150.226481,188.897859 124.171968,158.61827 114.434567,147.032815 C104.697165,135.447361 83.9070538,109.117214 47.5880666,115.435689 C11.2706621,121.755748 12.850299,168.886188 14.429936,180.7361 C16.0079901,192.584428 19.6927545,204.69563 18.1131175,214.437801 C16.5350634,224.179971 12.3232258,250.510117 29.4301557,274.208358 C37.2096303,284.984604 43.904885,278.946422 43.904885,278.946422 C43.904885,278.946422 51.5371589,274.208358 46.2727576,263.938856 C41.0099392,253.669355 36.5353564,246.823548 37.8522481,235.502551 C39.167557,224.179971 45.2201939,214.437801 41.2726844,198.640029" id="Fill-8" fill="#EFD638"/><path d="M170.692751,203.411191 C170.243235,207.294123 180.898661,207.550663 180.930418,204.068375 C180.966722,200.080927 171.13277,199.616938 170.692751,203.411191" id="Fill-10" fill="#000"/><path d="M200.606769,203.23573 C200.157253,207.118663 210.81268,207.375202 210.844437,203.892915 C210.88074,199.905466 201.046788,199.441478 200.606769,203.23573" id="Fill-12" fill="#000"/><path d="M189.879641,230.681507 C188.999603,230.681507 188.152804,230.189015 187.742858,229.343384 C187.169883,228.163619 187.660552,226.744733 188.836575,226.169894 C188.999603,226.089132 197.035492,222.017754 197.649619,214.764968 C197.736673,213.719806 198.499584,212.856757 199.52524,212.64139 C200.549313,212.426023 201.597129,212.907431 202.098877,213.82749 C202.144778,213.909836 206.625692,222.047842 211.570368,224.831771 C212.713151,225.47312 213.118348,226.922094 212.474148,228.065437 C211.83153,229.20878 210.381683,229.614176 209.242065,228.971243 C205.9071,227.094704 202.920352,223.572827 200.853211,220.685965 C197.776243,227.039279 191.259845,230.274528 190.914794,230.442387 C190.580823,230.603912 190.227858,230.681507 189.879641,230.681507" id="Fill-14" fill="#E0B40C"/><path d="M194.426242,264.819009 C193.622178,264.819009 192.883009,264.668569 192.265716,264.541883 C191.808286,264.448452 191.392009,264.356604 191.088111,264.367689 C190.130516,264.385109 189.267888,264.223584 188.511309,264.07156 C188.042799,263.978129 187.601197,263.889449 187.248232,263.875196 C187.002898,263.856194 186.545468,263.993965 186.137105,264.106399 C185.369446,264.321765 184.413433,264.587806 183.345041,264.473789 C182.205423,264.353437 181.293729,263.856194 180.559309,263.455548 C180.269656,263.297191 179.831219,263.056487 179.668191,263.029566 C179.177522,262.944053 178.691602,262.906047 178.213595,262.864874 C177.460181,262.801531 176.681442,262.735021 175.866299,262.541824 C175.472181,262.446809 175.085977,262.361296 174.706105,262.27895 C173.814987,262.081003 172.955525,261.886223 172.141965,261.639185 C171.762092,261.523584 171.26984,261.480827 170.749098,261.434903 C169.99885,261.369977 169.148885,261.295548 168.303668,260.977249 C166.974114,260.478422 165.718952,260.0081 164.69013,259.537777 C163.197547,258.856839 162.66256,258.386516 162.119659,257.844933 C161.915477,257.642235 161.793602,257.518716 161.369411,257.260592 C160.250369,256.576487 159.897404,255.114845 160.579592,253.995255 C161.263363,252.875666 162.724289,252.520944 163.843331,253.20505 C164.679051,253.714962 165.092162,254.101355 165.4752,254.482997 C165.69521,254.703114 165.826582,254.834551 166.660719,255.216194 C167.540758,255.616839 168.721528,256.06024 169.971942,256.530563 C170.209363,256.619243 170.6937,256.662 171.160627,256.703173 C171.86814,256.763349 172.669038,256.83461 173.525334,257.094317 C174.226516,257.3081 174.965684,257.469625 175.733344,257.639067 C176.136958,257.729331 176.546904,257.819595 176.963181,257.919361 C177.433274,258.030211 178.009414,258.079302 178.618793,258.13156 C179.226589,258.183818 179.845465,258.239243 180.469089,258.346927 C181.412439,258.508452 182.200675,258.939185 182.835379,259.284405 C183.177264,259.47285 183.645774,259.727806 183.842041,259.748393 C184.00507,259.756311 184.528977,259.62329 184.86928,259.528276 C185.576793,259.333496 186.461579,259.10071 187.435003,259.12763 C188.164675,259.156135 188.84528,259.293906 189.445162,259.414258 C190.002309,259.526692 190.524633,259.634375 190.95199,259.61854 C191.782961,259.599537 192.545872,259.749977 193.215398,259.887748 C193.73614,259.995431 194.23314,260.095196 194.546535,260.063525 C195.219226,259.997015 195.948898,259.854493 196.722888,259.702469 C197.172404,259.615372 197.623503,259.526692 198.074602,259.45068 C199.363003,259.238481 200.59284,260.103114 200.811267,261.396897 C201.029694,262.689097 200.159153,263.91637 198.866003,264.134903 C198.454474,264.204581 198.044528,264.285343 197.634582,264.364522 C196.7862,264.530798 195.909328,264.703408 195.010296,264.790504 C194.812446,264.811091 194.617761,264.819009 194.426242,264.819009" id="Fill-16" fill="#E0B40C"/><path d="M266.762218,280.869677 C266.698905,280.869677 266.637176,280.868094 266.572281,280.86176 C264.949909,280.735073 260.161931,280.823754 258.452504,280.869677 C257.179931,280.907683 256.051393,279.87044 256.016571,278.557654 C255.981749,277.244868 257.016902,276.153783 258.327463,276.118944 C258.587042,276.11261 264.742561,275.951085 266.947405,276.126862 C268.253218,276.229795 269.229807,277.373138 269.126925,278.681173 C269.028791,279.925865 267.988889,280.869677 266.762218,280.869677" id="Fill-18" fill="#FEF864"/><path d="M267.601578,273.42417 C267.29768,273.42417 266.98745,273.365578 266.688301,273.240475 C264.88074,272.488276 260.917403,272.846164 258.845514,273.248393 C257.552364,273.498598 256.311447,272.657718 256.061364,271.371853 C255.811282,270.084405 256.648584,268.838129 257.935403,268.584757 C258.627087,268.450152 264.8016,267.308393 268.516438,268.855548 C269.725699,269.36071 270.298673,270.751091 269.793759,271.962528 C269.413887,272.873085 268.530683,273.42417 267.601578,273.42417" id="Fill-20" fill="#FEF864"/><g id="Group-24" transform="translate(257.996815, 254.181642)"><mask id="masterstickerscat-mask-4" fill="#fff"><use xlink:href="#masterstickerscat-path-3"/></mask><g id="Clip-23"/><path d="M11.8004261,6.50517889 C11.3857318,6.50517889 10.9662892,6.3974956 10.583251,6.16787683 C9.24736561,5.36817009 5.1431586,5.42359531 2.79111401,5.71497361 C1.48371911,5.86541349 0.30453121,4.95010557 0.14308535,3.64840469 C-0.016777707,2.34828739 0.905996178,1.16218768 2.20547707,1.00066276 C3.44955987,0.843888563 9.81242611,0.170868035 13.0207669,2.0917478 C14.1461395,2.76476833 14.5133497,4.2232434 13.8406586,5.34916716 C13.3958911,6.09344868 12.6076554,6.50517889 11.8004261,6.50517889" id="Fill-22" fill="#FEF864" mask="url(#masterstickerscat-mask-4)"/></g><path d="M42.5375019,282.640434 C42.087986,282.640434 41.6337217,282.513748 41.230107,282.246123 C38.1373108,280.200141 34.7184573,275.175449 34.3385847,274.608528 C33.6089127,273.519026 33.8985656,272.044716 34.9875338,271.314686 C36.0780847,270.579906 37.5500911,270.872868 38.2829287,271.96237 C39.1692981,273.283073 41.8964669,276.993396 43.8496452,278.284012 C44.9433618,279.007707 45.2425115,280.480434 44.5207535,281.574686 C44.0633236,282.26671 43.3083268,282.640434 42.5375019,282.640434" id="Fill-25" fill="#FEF864"/><path d="M47.9845586,277.19071 C47.6553357,277.19071 47.3213643,277.122616 47.0016382,276.975343 C43.5669567,275.409185 39.901186,270.194463 39.4944057,269.603789 C38.7504885,268.525372 39.0211478,267.046311 40.0990363,266.302029 C41.1769248,265.556164 42.6552624,265.825372 43.4007624,266.905372 C44.654342,268.716985 47.2738803,271.87939 48.9706446,272.65376 C50.1640777,273.196927 50.6895682,274.606311 50.1466669,275.800328 C49.7478006,276.674463 48.8867561,277.19071 47.9845586,277.19071" id="Fill-27" fill="#FEF864"/><path d="M85.1155236,283.475455 C84.7150745,283.475455 84.3098771,283.374106 83.9363357,283.160323 C80.7580682,281.336041 75.1644439,277.489531 74.9286064,277.326422 C73.849135,276.582141 73.5753102,275.103079 74.3192274,274.023079 C75.0615618,272.944663 76.5414822,272.667537 77.6209535,273.413402 C77.6779344,273.451408 83.2889694,277.31217 86.2994599,279.03827 C87.4359121,279.690704 87.8300299,281.142845 87.1779153,282.281437 C86.7378962,283.046305 85.9385809,283.475455 85.1155236,283.475455" id="Fill-29" fill="#FEF864"/><path d="M89.4767777,277.19071 C89.1032363,277.19071 88.7233637,277.102029 88.3703987,276.915167 C85.7904306,275.551707 79.6111694,272.370299 79.6111694,272.370299 L81.7827745,268.145314 C81.7827745,268.145314 87.9952745,271.344141 90.5879051,272.713935 C91.7480994,273.32678 92.1912841,274.764669 91.5787395,275.923848 C91.1529656,276.729889 90.3299083,277.19071 89.4767777,277.19071" id="Fill-31" fill="#FEF864"/><path d="M196.027563,213.803419 C195.94684,217.711689 205.494305,217.466235 205.223646,213.919021 C204.905503,209.733625 196.119366,209.317144 196.027563,213.803419" id="Fill-33" fill="#FE5C4F"/></g></g></g></svg>